<svg width="569.43125px" height="126.8px" xmlns="http://www.w3.org/2000/svg" viewBox="-34.71562499999999 11.600000000000001 569.43125 126.8" style="background: none;" preserveAspectRatio="xMidYMid"><defs><filter id="editing-hover" x="-100%" y="-100%" width="300%" height="300%"><feFlood flood-color="#ffffff" result="flood"></feFlood><feComposite operator="in" in2="SourceAlpha" in="flood" result="shadow"></feComposite><feOffset dx="-1.8" dy="-0.1" in="SourceGraphic" result="offset-1"></feOffset><feOffset dx="1.8" dy="0.1" in="shadow" result="offset-2"></feOffset><feMerge><feMergeNode in="offset-2"></feMergeNode><feMergeNode in="offset-1"></feMergeNode></feMerge></filter></defs><g filter="url(#editing-hover)"><g transform="translate(46.34997892379761, 101.53000259399414)"><path d="M63.65 0L47.88 0L47.88-17.86L47.88-17.86Q47.88-21.17 48.13-24.66L48.13-24.66L48.13-24.66Q48.38-28.15 48.67-30.53L48.67-30.53L48.67-30.53Q48.96-32.90 49.03-33.55L49.03-33.55L48.74-33.55L39.60 0L27.14 0L17.93-33.48L17.64-33.48L17.64-33.48Q17.71-32.83 18.04-30.49L18.04-30.49L18.04-30.49Q18.36-28.15 18.65-24.66L18.65-24.66L18.65-24.66Q18.94-21.17 18.94-17.86L18.94-17.86L18.94 0L4.32 0L4.32-49.54L26.78-49.54L34.27-20.95L34.56-20.95L41.98-49.54L63.65-49.54L63.65 0ZM91.94-38.88L91.94-38.88Q101.95-38.88 107.68-33.80L107.68-33.80L107.68-33.80Q113.40-28.73 113.40-19.01L113.40-19.01L113.40-19.01Q113.40-9.29 107.68-4.21L107.68-4.21L107.68-4.21Q101.95 0.86 91.94 0.86L91.94 0.86L91.94 0.86Q81.94 0.86 76.25-4.18L76.25-4.18L76.25-4.18Q70.56-9.22 70.56-19.01L70.56-19.01L70.56-19.01Q70.56-28.80 76.25-33.84L76.25-33.84L76.25-33.84Q81.94-38.88 91.94-38.88L91.94-38.88ZM91.94-29.16L91.94-29.16Q84.89-29.16 84.89-21.02L84.89-21.02L84.89-16.92L84.89-16.92Q84.89-8.86 91.94-8.86L91.94-8.86L91.94-8.86Q99.07-8.86 99.07-16.92L99.07-16.92L99.07-21.02L99.07-21.02Q99.07-29.16 91.94-29.16L91.94-29.16ZM159.62 0L147.96 0L146.74-5.40L146.74-5.40Q142.56 0.86 134.64 0.86L134.64 0.86L134.64 0.86Q126.94 0.86 122.76-4.18L122.76-4.18L122.76-4.18Q118.58-9.22 118.58-19.08L118.58-19.08L118.58-19.08Q118.58-28.87 122.76-33.88L122.76-33.88L122.76-33.88Q126.94-38.88 134.64-38.88L134.64-38.88L134.64-38.88Q141.19-38.88 145.30-34.49L145.30-34.49L145.30-52.20L159.62-52.20L159.62 0ZM139.10-28.30L139.10-28.30Q132.91-28.30 132.91-20.88L132.91-20.88L132.91-17.06L132.91-17.06Q132.91-9.72 139.10-9.72L139.10-9.72L139.10-9.72Q142.27-9.72 143.86-11.95L143.86-11.95L143.86-11.95Q145.44-14.18 145.44-17.78L145.44-17.78L145.44-20.16L145.44-20.16Q145.44-23.76 143.86-26.03L143.86-26.03L143.86-26.03Q142.27-28.30 139.10-28.30L139.10-28.30ZM207.65 0L195.91 0L194.98-5.76L194.98-5.76Q192.74-2.66 189.11-0.90L189.11-0.90L189.11-0.90Q185.47 0.86 181.44 0.86L181.44 0.86L181.44 0.86Q174.82 0.86 171.50-2.81L171.50-2.81L171.50-2.81Q168.19-6.48 168.19-13.39L168.19-13.39L168.19-38.02L182.52-38.02L182.52-15.12L182.52-15.12Q182.52-12.67 183.78-11.20L183.78-11.20L183.78-11.20Q185.04-9.72 187.34-9.72L187.34-9.72L187.34-9.72Q190.01-9.72 191.66-11.45L191.66-11.45L191.66-11.45Q193.32-13.18 193.32-15.70L193.32-15.70L193.32-38.02L207.65-38.02L207.65 0ZM231.19 0L216.86 0L216.86-52.20L231.19-52.20L231.19 0ZM259.99-38.88L259.99-38.88Q270.43-38.88 275.94-33.98L275.94-33.98L275.94-33.98Q281.45-29.09 281.45-19.01L281.45-19.01L281.45-16.56L252.94-16.56L252.94-16.56Q252.94-12.46 254.77-10.37L254.77-10.37L254.77-10.37Q256.61-8.28 260.57-8.28L260.57-8.28L260.57-8.28Q264.17-8.28 265.86-9.79L265.86-9.79L265.86-9.79Q267.55-11.30 267.55-13.82L267.55-13.82L281.45-13.82L281.45-13.82Q281.45-6.91 276.19-3.02L276.19-3.02L276.19-3.02Q270.94 0.86 260.86 0.86L260.86 0.86L260.86 0.86Q250.27 0.86 244.44-4.07L244.44-4.07L244.44-4.07Q238.61-9.00 238.61-19.01L238.61-19.01L238.61-19.01Q238.61-28.80 244.30-33.84L244.30-33.84L244.30-33.84Q249.98-38.88 259.99-38.88L259.99-38.88ZM260.57-29.74L260.57-29.74Q253.80-29.74 253.01-23.33L253.01-23.33L266.98-23.33L266.98-23.33Q266.98-26.28 265.28-28.01L265.28-28.01L265.28-28.01Q263.59-29.74 260.57-29.74L260.57-29.74ZM313.99-50.40L313.99-50.40Q326.81-50.40 333.79-43.85L333.79-43.85L333.79-43.85Q340.78-37.30 340.78-24.77L340.78-24.77L340.78-24.77Q340.78-12.24 333.79-5.69L333.79-5.69L333.79-5.69Q326.81 0.86 313.99 0.86L313.99 0.86L313.99 0.86Q301.18 0.86 294.23-5.65L294.23-5.65L294.23-5.65Q287.28-12.17 287.28-24.77L287.28-24.77L287.28-24.77Q287.28-37.37 294.23-43.88L294.23-43.88L294.23-43.88Q301.18-50.40 313.99-50.40L313.99-50.40ZM313.99-38.52L313.99-38.52Q308.88-38.52 306.22-35.42L306.22-35.42L306.22-35.42Q303.55-32.33 303.55-27.07L303.55-27.07L303.55-22.46L303.55-22.46Q303.55-17.21 306.22-14.11L306.22-14.11L306.22-14.11Q308.88-11.02 313.99-11.02L313.99-11.02L313.99-11.02Q319.10-11.02 321.80-14.11L321.80-14.11L321.80-14.11Q324.50-17.21 324.50-22.46L324.50-22.46L324.50-27.07L324.50-27.07Q324.50-32.33 321.80-35.42L321.80-35.42L321.80-35.42Q319.10-38.52 313.99-38.52L313.99-38.52ZM365.26-28.37L382.90-49.54L402.62-49.54L384.84-29.16L402.98 0L384.19 0L373.90-18.14L365.26-11.09L365.26 0L349.34 0L349.34-49.54L365.26-49.54L365.26-28.37Z" fill="#ab7a5f"></path></g></g><style>text {
  font-size: 64px;
  font-family: Arial Black;
  dominant-baseline: central;
  text-anchor: middle;
}</style></svg>