<svg width="534.82314453125px" height="186.79999999999998px" xmlns="http://www.w3.org/2000/svg" viewBox="-17.41157226562501 -18.39999999999999 534.82314453125 186.79999999999998" style="background: none;" preserveAspectRatio="xMidYMid"><defs><filter id="editing-hover" x="-100%" y="-100%" width="300%" height="300%"><feFlood flood-color="rgba(47.21428571428571%,47.21428571428571%,47.21428571428571%,0)" result="flood"></feFlood><feComposite operator="in" in2="SourceAlpha" in="flood" result="shadow"></feComposite><feOffset dx="-6" dy="-4" in="SourceGraphic" result="offset-1"></feOffset><feOffset dx="6" dy="4" in="shadow" result="offset-2"></feOffset><feMerge><feMergeNode in="offset-2"></feMergeNode><feMergeNode in="offset-1"></feMergeNode></feMerge></filter></defs><g filter="url(#editing-hover)"><g transform="translate(59.72159504890442, 109.23999691009521)"><path d="M29.92-38.72L29.92-38.72L29.92-38.72Q23.76-38.72 20.48-34.96L20.48-34.96L20.48-34.96Q17.20-31.20 17.20-24.32L17.20-24.32L17.20-24.32Q17.20-17.36 20.84-13.60L20.84-13.60L20.84-13.60Q24.48-9.84 30.64-9.84L30.64-9.84L30.64-9.84Q33.92-9.84 36.20-10.72L36.20-10.72L36.20-10.72Q38.48-11.60 40.56-12.72L40.56-12.72L40.56-12.72Q41.92-11.60 42.68-10.04L42.68-10.04L42.68-10.04Q43.44-8.48 43.44-6.40L43.44-6.40L43.44-6.40Q43.44-3.12 39.80-0.84L39.80-0.84L39.80-0.84Q36.16 1.44 28.72 1.44L28.72 1.44L28.72 1.44Q23.36 1.44 18.64-0.08L18.64-0.08L18.64-0.08Q13.92-1.60 10.40-4.76L10.40-4.76L10.40-4.76Q6.88-7.92 4.84-12.76L4.84-12.76L4.84-12.76Q2.80-17.60 2.80-24.32L2.80-24.32L2.80-24.32Q2.80-30.56 4.76-35.32L4.76-35.32L4.76-35.32Q6.72-40.08 10.12-43.36L10.12-43.36L10.12-43.36Q13.52-46.64 18.08-48.32L18.08-48.32L18.08-48.32Q22.64-50 27.84-50L27.84-50L27.84-50Q35.20-50 39.24-47.60L39.24-47.60L39.24-47.60Q43.28-45.20 43.28-41.44L43.28-41.44L43.28-41.44Q43.28-39.36 42.24-37.84L42.24-37.84L42.24-37.84Q41.20-36.32 39.84-35.44L39.84-35.44L39.84-35.44Q37.76-36.80 35.40-37.76L35.40-37.76L35.40-37.76Q33.04-38.72 29.92-38.72ZM89.04-19.44L89.04-19.44L89.04-19.44Q89.04-14.48 87.52-10.60L87.52-10.60L87.52-10.60Q86-6.72 83.24-4.08L83.24-4.08L83.24-4.08Q80.48-1.44 76.64-0.08L76.64-0.08L76.64-0.08Q72.80 1.28 68.08 1.28L68.08 1.28L68.08 1.28Q63.36 1.28 59.52-0.16L59.52-0.16L59.52-0.16Q55.68-1.60 52.92-4.28L52.92-4.28L52.92-4.28Q50.16-6.96 48.64-10.80L48.64-10.80L48.64-10.80Q47.12-14.64 47.12-19.44L47.12-19.44L47.12-19.44Q47.12-24.16 48.64-28L48.64-28L48.64-28Q50.16-31.84 52.92-34.52L52.92-34.52L52.92-34.52Q55.68-37.20 59.52-38.64L59.52-38.64L59.52-38.64Q63.36-40.08 68.08-40.08L68.08-40.08L68.08-40.08Q72.80-40.08 76.64-38.60L76.64-38.60L76.64-38.60Q80.48-37.12 83.24-34.44L83.24-34.44L83.24-34.44Q86-31.76 87.52-27.92L87.52-27.92L87.52-27.92Q89.04-24.08 89.04-19.44ZM61.04-19.44L61.04-19.44L61.04-19.44Q61.04-14.56 62.92-11.96L62.92-11.96L62.92-11.96Q64.80-9.36 68.16-9.36L68.16-9.36L68.16-9.36Q71.52-9.36 73.32-12L73.32-12L73.32-12Q75.12-14.64 75.12-19.44L75.12-19.44L75.12-19.44Q75.12-24.24 73.28-26.84L73.28-26.84L73.28-26.84Q71.44-29.44 68.08-29.44L68.08-29.44L68.08-29.44Q64.72-29.44 62.88-26.84L62.88-26.84L62.88-26.84Q61.04-24.24 61.04-19.44ZM114.32-40.08L114.32-40.08L114.32-40.08Q117.60-40.08 120.76-39.16L120.76-39.16L120.76-39.16Q123.92-38.24 126.24-36.40L126.24-36.40L126.24-36.40Q128.64-38 131.64-39.04L131.64-39.04L131.64-39.04Q134.64-40.08 138.88-40.08L138.88-40.08L138.88-40.08Q141.92-40.08 144.84-39.28L144.84-39.28L144.84-39.28Q147.76-38.48 150.04-36.76L150.04-36.76L150.04-36.76Q152.32-35.04 153.68-32.20L153.68-32.20L153.68-32.20Q155.04-29.36 155.04-25.28L155.04-25.28L155.04-0.08L155.04-0.08Q154.24 0.16 152.52 0.40L152.52 0.40L152.52 0.40Q150.80 0.64 148.96 0.64L148.96 0.64L148.96 0.64Q147.20 0.64 145.80 0.40L145.80 0.40L145.80 0.40Q144.40 0.16 143.44-0.56L143.44-0.56L143.44-0.56Q142.48-1.28 141.96-2.52L141.96-2.52L141.96-2.52Q141.44-3.76 141.44-5.76L141.44-5.76L141.44-24.88L141.44-24.88Q141.44-27.28 140.08-28.36L140.08-28.36L140.08-28.36Q138.72-29.44 136.40-29.44L136.40-29.44L136.40-29.44Q135.28-29.44 134-28.92L134-28.92L134-28.92Q132.72-28.40 132.08-27.84L132.08-27.84L132.08-27.84Q132.16-27.52 132.16-27.24L132.16-27.24L132.16-27.24Q132.16-26.96 132.16-26.72L132.16-26.72L132.16-0.08L132.16-0.08Q131.28 0.16 129.56 0.40L129.56 0.40L129.56 0.40Q127.84 0.64 126.08 0.64L126.08 0.64L126.08 0.64Q124.32 0.64 122.92 0.40L122.92 0.40L122.92 0.40Q121.52 0.16 120.56-0.56L120.56-0.56L120.56-0.56Q119.60-1.28 119.08-2.52L119.08-2.52L119.08-2.52Q118.56-3.76 118.56-5.76L118.56-5.76L118.56-24.88L118.56-24.88Q118.56-27.28 117.08-28.36L117.08-28.36L117.08-28.36Q115.60-29.44 113.52-29.44L113.52-29.44L113.52-29.44Q112.08-29.44 111.04-29L111.04-29L111.04-29Q110.00-28.56 109.28-28.16L109.28-28.16L109.28-0.08L109.28-0.08Q108.48 0.16 106.76 0.40L106.76 0.40L106.76 0.40Q105.04 0.64 103.20 0.64L103.20 0.64L103.20 0.64Q101.44 0.64 100.04 0.40L100.04 0.40L100.04 0.40Q98.64 0.16 97.68-0.56L97.68-0.56L97.68-0.56Q96.72-1.28 96.20-2.52L96.20-2.52L96.20-2.52Q95.68-3.76 95.68-5.76L95.68-5.76L95.68-29.92L95.68-29.92Q95.68-32.08 96.60-33.36L96.60-33.36L96.60-33.36Q97.52-34.64 99.12-35.76L99.12-35.76L99.12-35.76Q101.84-37.68 105.88-38.88L105.88-38.88L105.88-38.88Q109.92-40.08 114.32-40.08ZM163.52-5.76L163.52-38.88L163.52-38.88Q163.52-42.96 164.92-45.88L164.92-45.88L164.92-45.88Q166.32-48.80 168.72-50.68L168.72-50.68L168.72-50.68Q171.12-52.56 174.36-53.44L174.36-53.44L174.36-53.44Q177.60-54.32 181.28-54.32L181.28-54.32L181.28-54.32Q187.20-54.32 190.00-52.76L190.00-52.76L190.00-52.76Q192.80-51.20 192.80-47.44L192.80-47.44L192.80-47.44Q192.80-45.84 192.12-44.56L192.12-44.56L192.12-44.56Q191.44-43.28 190.64-42.64L190.64-42.64L190.64-42.64Q189.12-43.04 187.48-43.32L187.48-43.32L187.48-43.32Q185.84-43.60 183.68-43.60L183.68-43.60L183.68-43.60Q180.24-43.60 178.32-42.44L178.32-42.44L178.32-42.44Q176.40-41.28 176.40-38.40L176.40-38.40L176.40-35.84L189.52-35.84L189.52-35.84Q190.00-34.96 190.44-33.64L190.44-33.64L190.44-33.64Q190.88-32.32 190.88-30.72L190.88-30.72L190.88-30.72Q190.88-27.92 189.64-26.68L189.64-26.68L189.64-26.68Q188.40-25.44 186.32-25.44L186.32-25.44L177.12-25.44L177.12-0.08L177.12-0.08Q176.32 0.16 174.60 0.40L174.60 0.40L174.60 0.40Q172.88 0.64 171.04 0.64L171.04 0.64L171.04 0.64Q169.28 0.64 167.88 0.40L167.88 0.40L167.88 0.40Q166.48 0.16 165.52-0.56L165.52-0.56L165.52-0.56Q164.56-1.28 164.04-2.52L164.04-2.52L164.04-2.52Q163.52-3.76 163.52-5.76L163.52-5.76ZM203.04-9.92L203.04-9.92L203.04-9.92Q202.16-11.92 201.16-14.40L201.16-14.40L201.16-14.40Q200.16-16.88 199.08-20.08L199.08-20.08L199.08-20.08Q198-23.28 196.84-27.40L196.84-27.40L196.84-27.40Q195.68-31.52 194.40-36.88L194.40-36.88L194.40-36.88Q195.52-38 197.40-38.84L197.40-38.84L197.40-38.84Q199.28-39.68 201.52-39.68L201.52-39.68L201.52-39.68Q204.32-39.68 206.16-38.52L206.16-38.52L206.16-38.52Q208-37.36 208.88-34.16L208.88-34.16L215.20-12.16L215.52-12.16L215.52-12.16Q216.48-14.88 217.40-18.08L217.40-18.08L217.40-18.08Q218.32-21.28 219.20-24.68L219.20-24.68L219.20-24.68Q220.08-28.08 220.84-31.48L220.84-31.48L220.84-31.48Q221.60-34.88 222.16-38.16L222.16-38.16L222.16-38.16Q225.04-39.68 228.48-39.68L228.48-39.68L228.48-39.68Q231.28-39.68 233.12-38.48L233.12-38.48L233.12-38.48Q234.96-37.28 234.96-34.32L234.96-34.32L234.96-34.32Q234.96-32.16 234.40-29.32L234.40-29.32L234.40-29.32Q233.84-26.48 232.92-23.28L232.92-23.28L232.92-23.28Q232-20.08 230.76-16.68L230.76-16.68L230.76-16.68Q229.52-13.28 228.16-10L228.16-10L228.16-10Q226.80-6.72 225.36-3.80L225.36-3.80L225.36-3.80Q223.92-0.88 222.56 1.44L222.56 1.44L222.56 1.44Q220.32 5.36 218.40 7.84L218.40 7.84L218.40 7.84Q216.48 10.32 214.72 11.72L214.72 11.72L214.72 11.72Q212.96 13.12 211.20 13.64L211.20 13.64L211.20 13.64Q209.44 14.16 207.52 14.16L207.52 14.16L207.52 14.16Q204.16 14.16 202.08 12.16L202.08 12.16L202.08 12.16Q200 10.16 199.60 6.96L199.60 6.96L199.60 6.96Q202.16 4.96 204.72 2.52L204.72 2.52L204.72 2.52Q207.28 0.08 209.36-2.48L209.36-2.48L209.36-2.48Q208-2.88 206.44-4.36L206.44-4.36L206.44-4.36Q204.88-5.84 203.04-9.92ZM275.60-11.92L275.60-11.92L275.60-11.92Q274.56-11.04 272.92-10.52L272.92-10.52L272.92-10.52Q271.28-10 269.12-10L269.12-10L269.12-10Q266.24-10 264.36-10.72L264.36-10.72L264.36-10.72Q262.48-11.44 261.92-13.20L261.92-13.20L261.92-13.20Q259.68-20.24 258.24-24.60L258.24-24.60L258.24-24.60Q256.80-28.96 256-32.24L256-32.24L255.60-32.24L255.60-32.24Q255.36-27.52 255.24-23.64L255.24-23.64L255.24-23.64Q255.12-19.76 255.08-16.08L255.08-16.08L255.08-16.08Q255.04-12.40 254.92-8.64L254.92-8.64L254.92-8.64Q254.80-4.88 254.56-0.32L254.56-0.32L254.56-0.32Q253.52 0.08 251.84 0.36L251.84 0.36L251.84 0.36Q250.16 0.64 248.48 0.64L248.48 0.64L248.48 0.64Q244.96 0.64 243-0.48L243-0.48L243-0.48Q241.04-1.60 241.04-4.56L241.04-4.56L243.36-45.36L243.36-45.36Q244-46.40 246.16-47.60L246.16-47.60L246.16-47.60Q248.32-48.80 252.24-48.80L252.24-48.80L252.24-48.80Q256.48-48.80 258.88-47.48L258.88-47.48L258.88-47.48Q261.28-46.16 262.40-43.20L262.40-43.20L262.40-43.20Q263.12-41.28 263.96-38.80L263.96-38.80L263.96-38.80Q264.80-36.32 265.64-33.68L265.64-33.68L265.64-33.68Q266.48-31.04 267.28-28.44L267.28-28.44L267.28-28.44Q268.08-25.84 268.72-23.76L268.72-23.76L269.12-23.76L269.12-23.76Q271.04-30.48 272.96-36.76L272.96-36.76L272.96-36.76Q274.88-43.04 276.48-47.28L276.48-47.28L276.48-47.28Q277.68-47.92 279.56-48.36L279.56-48.36L279.56-48.36Q281.44-48.80 283.76-48.80L283.76-48.80L283.76-48.80Q287.68-48.80 290.16-47.64L290.16-47.64L290.16-47.64Q292.64-46.48 293.04-44.32L293.04-44.32L293.04-44.32Q293.36-42.72 293.72-39.40L293.72-39.40L293.72-39.40Q294.08-36.08 294.48-31.92L294.48-31.92L294.48-31.92Q294.88-27.76 295.28-23.12L295.28-23.12L295.28-23.12Q295.68-18.48 296.04-14.20L296.04-14.20L296.04-14.20Q296.40-9.92 296.64-6.36L296.64-6.36L296.64-6.36Q296.88-2.80 296.96-0.88L296.96-0.88L296.96-0.88Q295.60-0.08 294.12 0.28L294.12 0.28L294.12 0.28Q292.64 0.64 290.32 0.64L290.32 0.64L290.32 0.64Q287.28 0.64 285.20-0.40L285.20-0.40L285.20-0.40Q283.12-1.44 282.96-4.48L282.96-4.48L282.96-4.48Q282.48-13.20 282.36-20.16L282.36-20.16L282.36-20.16Q282.24-27.12 282-31.84L282-31.84L281.60-31.84L281.60-31.84Q280.80-28.72 279.28-24L279.28-24L279.28-24Q277.76-19.28 275.60-11.92ZM321.44-8.64L321.44-8.64L321.44-8.64Q322.80-8.64 324.44-8.92L324.44-8.92L324.44-8.92Q326.08-9.20 326.88-9.68L326.88-9.68L326.88-16.08L321.12-15.60L321.12-15.60Q318.88-15.44 317.44-14.64L317.44-14.64L317.44-14.64Q316-13.84 316-12.24L316-12.24L316-12.24Q316-10.64 317.24-9.64L317.24-9.64L317.24-9.64Q318.48-8.64 321.44-8.64ZM320.80-40.08L320.80-40.08L320.80-40.08Q325.12-40.08 328.68-39.20L328.68-39.20L328.68-39.20Q332.24-38.32 334.76-36.52L334.76-36.52L334.76-36.52Q337.28-34.72 338.64-31.96L338.64-31.96L338.64-31.96Q340-29.20 340-25.44L340-25.44L340-7.52L340-7.52Q340-5.44 338.84-4.12L338.84-4.12L338.84-4.12Q337.68-2.80 336.08-1.84L336.08-1.84L336.08-1.84Q330.88 1.28 321.44 1.28L321.44 1.28L321.44 1.28Q317.20 1.28 313.80 0.48L313.80 0.48L313.80 0.48Q310.40-0.32 307.96-1.92L307.96-1.92L307.96-1.92Q305.52-3.52 304.20-6L304.20-6L304.20-6Q302.88-8.48 302.88-11.76L302.88-11.76L302.88-11.76Q302.88-17.28 306.16-20.24L306.16-20.24L306.16-20.24Q309.44-23.20 316.32-23.92L316.32-23.92L326.80-25.04L326.80-25.60L326.80-25.60Q326.80-27.92 324.76-28.92L324.76-28.92L324.76-28.92Q322.72-29.92 318.88-29.92L318.88-29.92L318.88-29.92Q315.84-29.92 312.96-29.28L312.96-29.28L312.96-29.28Q310.08-28.64 307.76-27.68L307.76-27.68L307.76-27.68Q306.72-28.40 306-29.88L306-29.88L306-29.88Q305.28-31.36 305.28-32.96L305.28-32.96L305.28-32.96Q305.28-35.04 306.28-36.28L306.28-36.28L306.28-36.28Q307.28-37.52 309.36-38.40L309.36-38.40L309.36-38.40Q311.68-39.28 314.84-39.68L314.84-39.68L314.84-39.68Q318-40.08 320.80-40.08ZM348.48-5.76L348.48-38.88L348.48-38.88Q348.48-42.96 349.88-45.88L349.88-45.88L349.88-45.88Q351.28-48.80 353.68-50.68L353.68-50.68L353.68-50.68Q356.08-52.56 359.32-53.44L359.32-53.44L359.32-53.44Q362.56-54.32 366.24-54.32L366.24-54.32L366.24-54.32Q372.16-54.32 374.96-52.76L374.96-52.76L374.96-52.76Q377.76-51.20 377.76-47.44L377.76-47.44L377.76-47.44Q377.76-45.84 377.08-44.56L377.08-44.56L377.08-44.56Q376.40-43.28 375.60-42.64L375.60-42.64L375.60-42.64Q374.08-43.04 372.44-43.32L372.44-43.32L372.44-43.32Q370.80-43.60 368.64-43.60L368.64-43.60L368.64-43.60Q365.20-43.60 363.28-42.44L363.28-42.44L363.28-42.44Q361.36-41.28 361.36-38.40L361.36-38.40L361.36-35.84L374.48-35.84L374.48-35.84Q374.96-34.96 375.40-33.64L375.40-33.64L375.40-33.64Q375.84-32.32 375.84-30.72L375.84-30.72L375.84-30.72Q375.84-27.92 374.60-26.68L374.60-26.68L374.60-26.68Q373.36-25.44 371.28-25.44L371.28-25.44L362.08-25.44L362.08-0.08L362.08-0.08Q361.28 0.16 359.56 0.40L359.56 0.40L359.56 0.40Q357.84 0.64 356.00 0.64L356.00 0.64L356.00 0.64Q354.24 0.64 352.84 0.40L352.84 0.40L352.84 0.40Q351.44 0.16 350.48-0.56L350.48-0.56L350.48-0.56Q349.52-1.28 349.00-2.52L349.00-2.52L349.00-2.52Q348.48-3.76 348.48-5.76L348.48-5.76Z" fill="#ab7b60"></path></g></g><style>text {
  font-size: 64px;
  font-family: Arial Black;
  dominant-baseline: central;
  text-anchor: middle;
}</style></svg>