<svg width="500" height="200" viewBox="0 0 500 200" fill="none" xmlns="http://www.w3.org/2000/svg">
<rect width="500" height="200" fill="white"/>
<path d="M120.102 129C120.928 129 121.341 129 121.657 128.839C121.934 128.698 122.16 128.472 122.301 128.195C122.462 127.879 122.462 127.466 122.462 126.64V95.96C122.462 95.1339 122.462 94.7209 122.301 94.4054C122.16 94.1278 121.934 93.9022 121.657 93.7608C121.341 93.6 120.928 93.6 120.102 93.6L113.022 93.6C112.196 93.6 111.783 93.6 111.467 93.7608C111.19 93.9022 110.964 94.1278 110.823 94.4054C110.662 94.7209 110.662 95.1339 110.662 95.96V103.04C110.662 103.866 110.662 104.279 110.501 104.595C110.36 104.872 110.134 105.098 109.857 105.239C109.541 105.4 109.128 105.4 108.302 105.4H101.222C100.396 105.4 99.9828 105.4 99.6673 105.561C99.3897 105.702 99.1641 105.928 99.0227 106.205C98.8619 106.521 98.8619 106.934 98.8619 107.76V114.84C98.8619 115.666 98.8619 116.079 98.7011 116.395C98.5597 116.672 98.3341 116.898 98.0566 117.039C97.741 117.2 97.328 117.2 96.5019 117.2H89.4219C88.5958 117.2 88.1828 117.2 87.8673 117.361C87.5897 117.502 87.3641 117.728 87.2227 118.005C87.0619 118.321 87.0619 118.734 87.0619 119.56V126.64C87.0619 127.466 87.0619 127.879 87.2227 128.195C87.3641 128.472 87.5897 128.698 87.8673 128.839C88.1828 129 88.5958 129 89.4219 129L120.102 129Z" stroke="#AB7A5F" stroke-width="7" stroke-linecap="round" stroke-linejoin="round"/>
<path d="M87.0619 84.16C87.0619 83.3339 87.0619 82.9209 87.2227 82.6054C87.3641 82.3278 87.5897 82.1022 87.8673 81.9608C88.1828 81.8 88.5958 81.8 89.4219 81.8H96.5019C97.328 81.8 97.741 81.8 98.0566 81.9608C98.3341 82.1022 98.5597 82.3278 98.7011 82.6054C98.8619 82.9209 98.8619 83.3339 98.8619 84.16V91.24C98.8619 92.0661 98.8619 92.4791 98.7011 92.7946C98.5597 93.0722 98.3341 93.2978 98.0566 93.4392C97.741 93.6 97.328 93.6 96.5019 93.6H89.4219C88.5958 93.6 88.1828 93.6 87.8673 93.4392C87.5897 93.2978 87.3641 93.0722 87.2227 92.7946C87.0619 92.4791 87.0619 92.0661 87.0619 91.24V84.16Z" stroke="#AB7A5F" stroke-width="7" stroke-linecap="round" stroke-linejoin="round"/>
<path d="M66.4119 101.86C66.4119 101.034 66.4119 100.621 66.5727 100.305C66.7141 100.028 66.9397 99.8022 67.2173 99.6608C67.5328 99.5 67.9458 99.5 68.7719 99.5H75.8519C76.678 99.5 77.091 99.5 77.4066 99.6608C77.6841 99.8022 77.9097 100.028 78.0511 100.305C78.2119 100.621 78.2119 101.034 78.2119 101.86V108.94C78.2119 109.766 78.2119 110.179 78.0511 110.495C77.9097 110.772 77.6841 110.998 77.4066 111.139C77.091 111.3 76.678 111.3 75.8519 111.3H68.7719C67.9458 111.3 67.5328 111.3 67.2173 111.139C66.9397 110.998 66.7141 110.772 66.5727 110.495C66.4119 110.179 66.4119 109.766 66.4119 108.94V101.86Z" stroke="#AB7A5F" stroke-width="7" stroke-linecap="round" stroke-linejoin="round"/>
<path d="M63.4619 72.36C63.4619 71.5339 63.4619 71.1209 63.6227 70.8054C63.7641 70.5278 63.9897 70.3022 64.2673 70.1608C64.5828 70 64.9958 70 65.8219 70H72.9019C73.728 70 74.141 70 74.4566 70.1608C74.7341 70.3022 74.9597 70.5278 75.1011 70.8054C75.2619 71.1209 75.2619 71.5339 75.2619 72.36V79.44C75.2619 80.2661 75.2619 80.6791 75.1011 80.9946C74.9597 81.2722 74.7341 81.4978 74.4566 81.6392C74.141 81.8 73.728 81.8 72.9019 81.8H65.8219C64.9958 81.8 64.5828 81.8 64.2673 81.6392C63.9897 81.4978 63.7641 81.2722 63.6227 80.9946C63.4619 80.6791 63.4619 80.2661 63.4619 79.44V72.36Z" stroke="#AB7A5F" stroke-width="7" stroke-linecap="round" stroke-linejoin="round"/>
<path d="M142.571 81.7273H154.897L167.915 113.489H168.469L181.487 81.7273H193.813V129H184.119V98.2312H183.726L171.493 128.769H164.891L152.658 98.1158H152.265V129H142.571V81.7273ZM217.883 129.692C214.297 129.692 211.196 128.931 208.58 127.407C205.98 125.868 203.972 123.73 202.556 120.99C201.14 118.236 200.432 115.043 200.432 111.411C200.432 107.749 201.14 104.548 202.556 101.809C203.972 99.0544 205.98 96.9155 208.58 95.392C211.196 93.8532 214.297 93.0838 217.883 93.0838C221.468 93.0838 224.561 93.8532 227.162 95.392C229.778 96.9155 231.794 99.0544 233.209 101.809C234.625 104.548 235.333 107.749 235.333 111.411C235.333 115.043 234.625 118.236 233.209 120.99C231.794 123.73 229.778 125.868 227.162 127.407C224.561 128.931 221.468 129.692 217.883 129.692ZM217.929 122.075C219.56 122.075 220.922 121.614 222.014 120.69C223.107 119.752 223.93 118.474 224.484 116.859C225.054 115.243 225.338 113.404 225.338 111.342C225.338 109.28 225.054 107.441 224.484 105.825C223.93 104.21 223.107 102.932 222.014 101.994C220.922 101.055 219.56 100.586 217.929 100.586C216.282 100.586 214.897 101.055 213.774 101.994C212.666 102.932 211.827 104.21 211.258 105.825C210.704 107.441 210.427 109.28 210.427 111.342C210.427 113.404 210.704 115.243 211.258 116.859C211.827 118.474 212.666 119.752 213.774 120.69C214.897 121.614 216.282 122.075 217.929 122.075ZM254.791 129.577C252.098 129.577 249.659 128.885 247.474 127.5C245.305 126.099 243.581 124.045 242.304 121.337C241.042 118.613 240.411 115.274 240.411 111.319C240.411 107.256 241.065 103.879 242.373 101.186C243.681 98.4774 245.42 96.4538 247.59 95.1151C249.775 93.7609 252.168 93.0838 254.768 93.0838C256.753 93.0838 258.408 93.4223 259.731 94.0994C261.07 94.7611 262.147 95.5921 262.963 96.5923C263.794 97.5772 264.424 98.5466 264.855 99.5007H265.155V81.7273H274.965V129H265.271V123.322H264.855C264.394 124.307 263.74 125.284 262.893 126.253C262.062 127.207 260.977 128 259.639 128.631C258.315 129.262 256.7 129.577 254.791 129.577ZM257.907 121.752C259.492 121.752 260.831 121.321 261.924 120.46C263.032 119.582 263.878 118.359 264.463 116.789C265.063 115.22 265.363 113.381 265.363 111.273C265.363 109.165 265.071 107.333 264.486 105.779C263.901 104.225 263.055 103.025 261.947 102.178C260.839 101.332 259.492 100.909 257.907 100.909C256.292 100.909 254.93 101.347 253.822 102.224C252.714 103.102 251.875 104.317 251.306 105.871C250.737 107.426 250.452 109.226 250.452 111.273C250.452 113.335 250.737 115.158 251.306 116.743C251.891 118.313 252.729 119.544 253.822 120.436C254.93 121.314 256.292 121.752 257.907 121.752ZM305.786 113.904V93.5455H315.619V129H306.179V122.56H305.809C305.009 124.637 303.678 126.307 301.816 127.569C299.969 128.831 297.715 129.462 295.053 129.462C292.683 129.462 290.598 128.923 288.797 127.846C286.997 126.769 285.589 125.238 284.573 123.252C283.573 121.267 283.065 118.89 283.05 116.12V93.5455H292.883V114.366C292.898 116.459 293.46 118.113 294.568 119.328C295.676 120.544 297.161 121.152 299.023 121.152C300.208 121.152 301.316 120.883 302.347 120.344C303.378 119.79 304.209 118.975 304.84 117.897C305.486 116.82 305.802 115.489 305.786 113.904ZM333.318 81.7273V129H323.485V81.7273H333.318ZM357.352 129.692C353.705 129.692 350.566 128.954 347.935 127.477C345.319 125.984 343.303 123.876 341.887 121.152C340.471 118.413 339.763 115.174 339.763 111.434C339.763 107.787 340.471 104.587 341.887 101.832C343.303 99.0775 345.295 96.9309 347.865 95.392C350.451 93.8532 353.482 93.0838 356.96 93.0838C359.299 93.0838 361.476 93.4608 363.492 94.2148C365.523 94.9535 367.293 96.0691 368.801 97.5618C370.324 99.0545 371.509 100.932 372.356 103.194C373.202 105.441 373.625 108.072 373.625 111.088V113.789H343.687V107.695H364.369C364.369 106.279 364.061 105.025 363.446 103.933C362.83 102.84 361.976 101.986 360.884 101.37C359.807 100.739 358.552 100.424 357.121 100.424C355.629 100.424 354.305 100.77 353.151 101.463C352.012 102.14 351.12 103.055 350.474 104.21C349.827 105.348 349.496 106.618 349.481 108.018V113.812C349.481 115.566 349.804 117.082 350.451 118.359C351.112 119.636 352.043 120.621 353.244 121.314C354.444 122.006 355.867 122.352 357.514 122.352C358.606 122.352 359.607 122.198 360.514 121.891C361.422 121.583 362.199 121.121 362.846 120.506C363.492 119.89 363.985 119.136 364.323 118.244L373.418 118.844C372.956 121.029 372.01 122.937 370.578 124.568C369.163 126.184 367.331 127.446 365.085 128.354C362.853 129.246 360.276 129.692 357.352 129.692ZM423.668 105.364C423.668 110.519 422.691 114.904 420.736 118.521C418.797 122.137 416.151 124.899 412.796 126.807C409.457 128.7 405.702 129.646 401.532 129.646C397.331 129.646 393.561 128.692 390.222 126.784C386.882 124.876 384.243 122.114 382.304 118.498C380.365 114.881 379.396 110.503 379.396 105.364C379.396 100.209 380.365 95.8229 382.304 92.2067C384.243 88.5904 386.882 85.8359 390.222 83.9432C393.561 82.035 397.331 81.081 401.532 81.081C405.702 81.081 409.457 82.035 412.796 83.9432C416.151 85.8359 418.797 88.5904 420.736 92.2067C422.691 95.8229 423.668 100.209 423.668 105.364ZM413.535 105.364C413.535 102.024 413.035 99.2083 412.034 96.9155C411.05 94.6226 409.657 92.8838 407.856 91.6989C406.056 90.514 403.948 89.9215 401.532 89.9215C399.116 89.9215 397.008 90.514 395.207 91.6989C393.407 92.8838 392.007 94.6226 391.006 96.9155C390.021 99.2083 389.529 102.024 389.529 105.364C389.529 108.703 390.021 111.519 391.006 113.812C392.007 116.105 393.407 117.844 395.207 119.028C397.008 120.213 399.116 120.806 401.532 120.806C403.948 120.806 406.056 120.213 407.856 119.028C409.657 117.844 411.05 116.105 412.034 113.812C413.035 111.519 413.535 108.703 413.535 105.364ZM439.797 118.798L439.82 107.002H441.251L452.607 93.5455H463.895L448.637 111.365H446.306L439.797 118.798ZM430.887 129V81.7273H440.72V129H430.887ZM453.046 129L442.613 113.558L449.168 106.61L464.564 129H453.046Z" fill="#AB7A5F"/>
</svg>
