<svg width="458" height="120" viewBox="0 0 458 120" fill="none" xmlns="http://www.w3.org/2000/svg">
<rect width="458" height="120" fill="white"/>
<path d="M70.64 90C71.4661 90 71.8791 90 72.1946 89.8392C72.4722 89.6978 72.6978 89.4722 72.8392 89.1946C73 88.8791 73 88.4661 73 87.64V56.96C73 56.1339 73 55.7209 72.8392 55.4054C72.6978 55.1278 72.4722 54.9022 72.1946 54.7608C71.8791 54.6 71.4661 54.6 70.64 54.6L63.56 54.6C62.7339 54.6 62.3209 54.6 62.0054 54.7608C61.7278 54.9022 61.5022 55.1278 61.3608 55.4054C61.2 55.7209 61.2 56.1339 61.2 56.96V64.04C61.2 64.8661 61.2 65.2791 61.0392 65.5946C60.8978 65.8722 60.6722 66.0978 60.3946 66.2392C60.0791 66.4 59.6661 66.4 58.84 66.4H51.76C50.9339 66.4 50.5209 66.4 50.2054 66.5608C49.9278 66.7022 49.7022 66.9278 49.5608 67.2054C49.4 67.5209 49.4 67.9339 49.4 68.76V75.84C49.4 76.6661 49.4 77.0791 49.2392 77.3946C49.0978 77.6722 48.8722 77.8978 48.5946 78.0392C48.2791 78.2 47.8661 78.2 47.04 78.2H39.96C39.1339 78.2 38.7209 78.2 38.4054 78.3608C38.1278 78.5022 37.9022 78.7278 37.7608 79.0054C37.6 79.3209 37.6 79.7339 37.6 80.56V87.64C37.6 88.4661 37.6 88.8791 37.7608 89.1946C37.9022 89.4722 38.1278 89.6978 38.4054 89.8392C38.7209 90 39.1339 90 39.96 90L70.64 90Z" stroke="#AB7A5F" stroke-width="7" stroke-linecap="round" stroke-linejoin="round"/>
<path d="M37.6 45.16C37.6 44.3339 37.6 43.9209 37.7608 43.6054C37.9022 43.3278 38.1278 43.1022 38.4054 42.9608C38.7209 42.8 39.1339 42.8 39.96 42.8H47.04C47.8661 42.8 48.2791 42.8 48.5946 42.9608C48.8722 43.1022 49.0978 43.3278 49.2392 43.6054C49.4 43.9209 49.4 44.3339 49.4 45.16V52.24C49.4 53.0661 49.4 53.4791 49.2392 53.7946C49.0978 54.0722 48.8722 54.2978 48.5946 54.4392C48.2791 54.6 47.8661 54.6 47.04 54.6H39.96C39.1339 54.6 38.7209 54.6 38.4054 54.4392C38.1278 54.2978 37.9022 54.0722 37.7608 53.7946C37.6 53.4791 37.6 53.0661 37.6 52.24V45.16Z" stroke="#AB7A5F" stroke-width="7" stroke-linecap="round" stroke-linejoin="round"/>
<path d="M16.95 62.86C16.95 62.0339 16.95 61.6209 17.1108 61.3054C17.2522 61.0278 17.4778 60.8022 17.7554 60.6608C18.0709 60.5 18.4839 60.5 19.31 60.5H26.39C27.2161 60.5 27.6291 60.5 27.9446 60.6608C28.2222 60.8022 28.4478 61.0278 28.5892 61.3054C28.75 61.6209 28.75 62.0339 28.75 62.86V69.94C28.75 70.7661 28.75 71.1791 28.5892 71.4946C28.4478 71.7722 28.2222 71.9978 27.9446 72.1392C27.6291 72.3 27.2161 72.3 26.39 72.3H19.31C18.4839 72.3 18.0709 72.3 17.7554 72.1392C17.4778 71.9978 17.2522 71.7722 17.1108 71.4946C16.95 71.1791 16.95 70.7661 16.95 69.94V62.86Z" stroke="#AB7A5F" stroke-width="7" stroke-linecap="round" stroke-linejoin="round"/>
<path d="M14 33.36C14 32.5339 14 32.1209 14.1608 31.8054C14.3022 31.5278 14.5278 31.3022 14.8054 31.1608C15.1209 31 15.5339 31 16.36 31H23.44C24.2661 31 24.6791 31 24.9946 31.1608C25.2722 31.3022 25.4978 31.5278 25.6392 31.8054C25.8 32.1209 25.8 32.5339 25.8 33.36V40.44C25.8 41.2661 25.8 41.6791 25.6392 41.9946C25.4978 42.2722 25.2722 42.4978 24.9946 42.6392C24.6791 42.8 24.2661 42.8 23.44 42.8H16.36C15.5339 42.8 15.1209 42.8 14.8054 42.6392C14.5278 42.4978 14.3022 42.2722 14.1608 41.9946C14 41.6791 14 41.2661 14 40.44V33.36Z" stroke="#AB7A5F" stroke-width="7" stroke-linecap="round" stroke-linejoin="round"/>
<path d="M93.1087 42.7273H105.435L118.453 74.4886H119.007L132.026 42.7273H144.352V90H134.657V59.2312H134.265L122.031 89.7692H115.429L103.196 59.1158H102.803V90H93.1087V42.7273ZM168.421 90.6925C164.835 90.6925 161.735 89.9308 159.119 88.4073C156.518 86.8685 154.51 84.7295 153.094 81.9904C151.678 79.2359 150.97 76.0428 150.97 72.4112C150.97 68.7488 151.678 65.5481 153.094 62.8089C154.51 60.0544 156.518 57.9155 159.119 56.392C161.735 54.8532 164.835 54.0838 168.421 54.0838C172.006 54.0838 175.099 54.8532 177.7 56.392C180.316 57.9155 182.332 60.0544 183.747 62.8089C185.163 65.5481 185.871 68.7488 185.871 72.4112C185.871 76.0428 185.163 79.2359 183.747 81.9904C182.332 84.7295 180.316 86.8685 177.7 88.4073C175.099 89.9308 172.006 90.6925 168.421 90.6925ZM168.467 83.0753C170.098 83.0753 171.46 82.6136 172.552 81.6903C173.645 80.7517 174.468 79.4744 175.022 77.8587C175.592 76.2429 175.876 74.404 175.876 72.342C175.876 70.2799 175.592 68.4411 175.022 66.8253C174.468 65.2095 173.645 63.9323 172.552 62.9936C171.46 62.0549 170.098 61.5856 168.467 61.5856C166.82 61.5856 165.435 62.0549 164.312 62.9936C163.204 63.9323 162.365 65.2095 161.796 66.8253C161.242 68.4411 160.965 70.2799 160.965 72.342C160.965 74.404 161.242 76.2429 161.796 77.8587C162.365 79.4744 163.204 80.7517 164.312 81.6903C165.435 82.6136 166.82 83.0753 168.467 83.0753ZM205.329 90.5771C202.637 90.5771 200.197 89.8846 198.012 88.4996C195.843 87.0993 194.119 85.045 192.842 82.3366C191.58 79.6129 190.949 76.2737 190.949 72.3189C190.949 68.2564 191.603 64.8787 192.911 62.1857C194.219 59.4774 195.958 57.4538 198.128 56.1151C200.313 54.7609 202.706 54.0838 205.306 54.0838C207.291 54.0838 208.946 54.4223 210.269 55.0994C211.608 55.7611 212.685 56.5921 213.501 57.5923C214.332 58.5772 214.963 59.5466 215.393 60.5007H215.693V42.7273H225.503V90H215.809V84.3217H215.393C214.932 85.3066 214.278 86.2837 213.431 87.2532C212.6 88.2073 211.516 88.9998 210.177 89.6307C208.853 90.2616 207.238 90.5771 205.329 90.5771ZM208.446 82.7521C210.031 82.7521 211.369 82.3213 212.462 81.4595C213.57 80.5824 214.416 79.359 215.001 77.7894C215.601 76.2198 215.901 74.3809 215.901 72.2727C215.901 70.1645 215.609 68.3333 215.024 66.7791C214.439 65.2249 213.593 64.0246 212.485 63.1783C211.377 62.3319 210.031 61.9087 208.446 61.9087C206.83 61.9087 205.468 62.3473 204.36 63.2244C203.252 64.1016 202.413 65.3172 201.844 66.8714C201.275 68.4257 200.99 70.2261 200.99 72.2727C200.99 74.3348 201.275 76.1583 201.844 77.7433C202.429 79.3129 203.267 80.5439 204.36 81.4364C205.468 82.3136 206.83 82.7521 208.446 82.7521ZM256.324 74.9041V54.5455H266.157V90H256.717V83.56H256.347C255.547 85.6374 254.216 87.3071 252.354 88.5689C250.507 89.8307 248.253 90.4616 245.591 90.4616C243.221 90.4616 241.136 89.9231 239.336 88.8459C237.535 87.7687 236.127 86.2376 235.112 84.2525C234.111 82.2674 233.603 79.8899 233.588 77.12V54.5455H243.421V75.3658C243.437 77.4586 243.998 79.1128 245.106 80.3285C246.214 81.5442 247.699 82.152 249.561 82.152C250.746 82.152 251.854 81.8827 252.885 81.3441C253.916 80.7901 254.747 79.9745 255.378 78.8974C256.024 77.8202 256.34 76.4891 256.324 74.9041ZM283.856 42.7273V90H274.023V42.7273H283.856ZM307.89 90.6925C304.243 90.6925 301.104 89.9538 298.473 88.4766C295.857 86.9839 293.841 84.8757 292.425 82.152C291.009 79.4129 290.301 76.1736 290.301 72.4343C290.301 68.7873 291.009 65.5865 292.425 62.832C293.841 60.0775 295.834 57.9309 298.403 56.392C300.989 54.8532 304.02 54.0838 307.498 54.0838C309.837 54.0838 312.014 54.4608 314.03 55.2148C316.061 55.9535 317.831 57.0691 319.339 58.5618C320.863 60.0545 322.047 61.9318 322.894 64.1939C323.74 66.4406 324.163 69.072 324.163 72.0881V74.7887H294.225V68.695H314.907C314.907 67.2792 314.6 66.0251 313.984 64.9325C313.368 63.84 312.514 62.9859 311.422 62.3704C310.345 61.7395 309.091 61.424 307.659 61.424C306.167 61.424 304.843 61.7702 303.689 62.4627C302.551 63.1398 301.658 64.0554 301.012 65.2095C300.365 66.3482 300.035 67.6178 300.019 69.0181V74.8118C300.019 76.5661 300.342 78.0818 300.989 79.359C301.65 80.6362 302.581 81.6211 303.782 82.3136C304.982 83.006 306.405 83.3523 308.052 83.3523C309.144 83.3523 310.145 83.1984 311.053 82.8906C311.96 82.5829 312.738 82.1212 313.384 81.5057C314.03 80.8902 314.523 80.1361 314.861 79.2436L323.956 79.8438C323.494 82.0289 322.548 83.937 321.116 85.5682C319.701 87.1839 317.87 88.4458 315.623 89.3537C313.392 90.2462 310.814 90.6925 307.89 90.6925ZM374.206 66.3636C374.206 71.5187 373.229 75.9044 371.275 79.5206C369.336 83.1368 366.689 85.899 363.334 87.8072C359.995 89.6999 356.24 90.6463 352.07 90.6463C347.869 90.6463 344.099 89.6922 340.76 87.7841C337.42 85.8759 334.781 83.1138 332.842 79.4975C330.903 75.8813 329.934 71.5033 329.934 66.3636C329.934 61.2086 330.903 56.8229 332.842 53.2067C334.781 49.5904 337.42 46.8359 340.76 44.9432C344.099 43.035 347.869 42.081 352.07 42.081C356.24 42.081 359.995 43.035 363.334 44.9432C366.689 46.8359 369.336 49.5904 371.275 53.2067C373.229 56.8229 374.206 61.2086 374.206 66.3636ZM364.073 66.3636C364.073 63.0244 363.573 60.2083 362.572 57.9155C361.588 55.6226 360.195 53.8838 358.395 52.6989C356.594 51.514 354.486 50.9215 352.07 50.9215C349.654 50.9215 347.546 51.514 345.745 52.6989C343.945 53.8838 342.545 55.6226 341.544 57.9155C340.56 60.2083 340.067 63.0244 340.067 66.3636C340.067 69.7029 340.56 72.5189 341.544 74.8118C342.545 77.1046 343.945 78.8435 345.745 80.0284C347.546 81.2133 349.654 81.8058 352.07 81.8058C354.486 81.8058 356.594 81.2133 358.395 80.0284C360.195 78.8435 361.588 77.1046 362.572 74.8118C363.573 72.5189 364.073 69.7029 364.073 66.3636ZM390.335 79.7976L390.358 68.0025H391.789L403.146 54.5455H414.433L399.175 72.3651H396.844L390.335 79.7976ZM381.425 90V42.7273H391.258V90H381.425ZM403.584 90L393.151 74.5579L399.706 67.6101L415.102 90H403.584Z" fill="#AB7A5F"/>
</svg>
